<mxfile host="app.diagrams.net" modified="2024-05-15T14:54:22.506Z" agent="Mozilla/5.0 (Windows NT 10.0; Win64; x64) AppleWebKit/537.36 (KHTML, like Gecko) Chrome/124.0.0.0 Safari/537.36" etag="ytCaDRlEi6r3EXWEtjIG" version="24.4.0" type="github" pages="3">
  <diagram name="Venda Prospect/Base" id="NPQVaTTvWhRDFUkvkyOC">
    <mxGraphModel dx="1114" dy="566" grid="1" gridSize="10" guides="1" tooltips="1" connect="1" arrows="1" fold="1" page="1" pageScale="1" pageWidth="827" pageHeight="1169" math="0" shadow="0">
      <root>
        <mxCell id="0" />
        <mxCell id="1" parent="0" />
        <mxCell id="WPxFGDH8g9c_htjjQB-0-18" value="NETSMS" style="shape=cylinder3;whiteSpace=wrap;html=1;boundedLbl=1;backgroundOutline=1;size=15;verticalAlign=top;" parent="1" vertex="1">
          <mxGeometry x="260" y="110" width="240" height="210" as="geometry" />
        </mxCell>
        <mxCell id="WPxFGDH8g9c_htjjQB-0-19" style="edgeStyle=orthogonalEdgeStyle;rounded=0;orthogonalLoop=1;jettySize=auto;html=1;entryX=0.5;entryY=0;entryDx=0;entryDy=0;" parent="1" source="WPxFGDH8g9c_htjjQB-0-1" target="WPxFGDH8g9c_htjjQB-0-2" edge="1">
          <mxGeometry relative="1" as="geometry">
            <mxPoint x="60" y="60" as="sourcePoint" />
            <Array as="points">
              <mxPoint x="80" y="60" />
            </Array>
          </mxGeometry>
        </mxCell>
        <mxCell id="WPxFGDH8g9c_htjjQB-0-1" value="VENDEDOR" style="shape=umlActor;verticalLabelPosition=bottom;verticalAlign=top;html=1;outlineConnect=0;" parent="1" vertex="1">
          <mxGeometry x="111" y="54" width="30" height="60" as="geometry" />
        </mxCell>
        <mxCell id="WPxFGDH8g9c_htjjQB-0-12" style="edgeStyle=orthogonalEdgeStyle;rounded=0;orthogonalLoop=1;jettySize=auto;html=1;entryX=0;entryY=0.5;entryDx=0;entryDy=0;" parent="1" source="WPxFGDH8g9c_htjjQB-0-2" target="WPxFGDH8g9c_htjjQB-0-9" edge="1">
          <mxGeometry relative="1" as="geometry" />
        </mxCell>
        <mxCell id="WPxFGDH8g9c_htjjQB-0-2" value="NETSales&amp;nbsp;&lt;div&gt;Venda Prospect&lt;/div&gt;" style="rounded=1;whiteSpace=wrap;html=1;" parent="1" vertex="1">
          <mxGeometry x="20" y="193" width="120" height="60" as="geometry" />
        </mxCell>
        <mxCell id="WPxFGDH8g9c_htjjQB-0-8" style="edgeStyle=orthogonalEdgeStyle;rounded=0;orthogonalLoop=1;jettySize=auto;html=1;entryX=0;entryY=0.25;entryDx=0;entryDy=0;" parent="1" source="WPxFGDH8g9c_htjjQB-0-3" target="WPxFGDH8g9c_htjjQB-0-4" edge="1">
          <mxGeometry relative="1" as="geometry" />
        </mxCell>
        <mxCell id="WPxFGDH8g9c_htjjQB-0-3" value="Novo cadastro registro optin/optout" style="rounded=1;whiteSpace=wrap;html=1;fillColor=#fff2cc;strokeColor=#d6b656;" parent="1" vertex="1">
          <mxGeometry x="230" y="20" width="120" height="60" as="geometry" />
        </mxCell>
        <mxCell id="WPxFGDH8g9c_htjjQB-0-4" value="Cadastro optin/optout" style="swimlane;fontStyle=0;childLayout=stackLayout;horizontal=1;startSize=30;horizontalStack=0;resizeParent=1;resizeParentMax=0;resizeLast=0;collapsible=1;marginBottom=0;whiteSpace=wrap;html=1;fillColor=#fff2cc;strokeColor=#d6b656;" parent="1" vertex="1">
          <mxGeometry x="310" y="183" width="140" height="120" as="geometry" />
        </mxCell>
        <mxCell id="WPxFGDH8g9c_htjjQB-0-5" value="Email" style="text;strokeColor=none;fillColor=none;align=left;verticalAlign=middle;spacingLeft=4;spacingRight=4;overflow=hidden;points=[[0,0.5],[1,0.5]];portConstraint=eastwest;rotatable=0;whiteSpace=wrap;html=1;" parent="WPxFGDH8g9c_htjjQB-0-4" vertex="1">
          <mxGeometry y="30" width="140" height="30" as="geometry" />
        </mxCell>
        <mxCell id="WPxFGDH8g9c_htjjQB-0-6" value="Telefone" style="text;strokeColor=none;fillColor=none;align=left;verticalAlign=middle;spacingLeft=4;spacingRight=4;overflow=hidden;points=[[0,0.5],[1,0.5]];portConstraint=eastwest;rotatable=0;whiteSpace=wrap;html=1;" parent="WPxFGDH8g9c_htjjQB-0-4" vertex="1">
          <mxGeometry y="60" width="140" height="30" as="geometry" />
        </mxCell>
        <mxCell id="WPxFGDH8g9c_htjjQB-0-7" value="SMS" style="text;strokeColor=none;fillColor=none;align=left;verticalAlign=middle;spacingLeft=4;spacingRight=4;overflow=hidden;points=[[0,0.5],[1,0.5]];portConstraint=eastwest;rotatable=0;whiteSpace=wrap;html=1;" parent="WPxFGDH8g9c_htjjQB-0-4" vertex="1">
          <mxGeometry y="90" width="140" height="30" as="geometry" />
        </mxCell>
        <mxCell id="WPxFGDH8g9c_htjjQB-0-10" style="edgeStyle=orthogonalEdgeStyle;rounded=0;orthogonalLoop=1;jettySize=auto;html=1;entryX=0;entryY=0.5;entryDx=0;entryDy=0;exitX=0.5;exitY=0;exitDx=0;exitDy=0;" parent="1" source="WPxFGDH8g9c_htjjQB-0-9" target="WPxFGDH8g9c_htjjQB-0-3" edge="1">
          <mxGeometry relative="1" as="geometry" />
        </mxCell>
        <mxCell id="WPxFGDH8g9c_htjjQB-0-11" value="NÃ£o" style="edgeLabel;html=1;align=center;verticalAlign=middle;resizable=0;points=[];" parent="WPxFGDH8g9c_htjjQB-0-10" vertex="1" connectable="0">
          <mxGeometry x="-0.639" relative="1" as="geometry">
            <mxPoint as="offset" />
          </mxGeometry>
        </mxCell>
        <mxCell id="WPxFGDH8g9c_htjjQB-0-14" style="edgeStyle=orthogonalEdgeStyle;rounded=0;orthogonalLoop=1;jettySize=auto;html=1;entryX=0;entryY=0.5;entryDx=0;entryDy=0;exitX=0.5;exitY=1;exitDx=0;exitDy=0;" parent="1" source="WPxFGDH8g9c_htjjQB-0-9" target="WPxFGDH8g9c_htjjQB-0-13" edge="1">
          <mxGeometry relative="1" as="geometry" />
        </mxCell>
        <mxCell id="WPxFGDH8g9c_htjjQB-0-15" value="Sim" style="edgeLabel;html=1;align=center;verticalAlign=middle;resizable=0;points=[];" parent="WPxFGDH8g9c_htjjQB-0-14" vertex="1" connectable="0">
          <mxGeometry x="-0.44" y="-2" relative="1" as="geometry">
            <mxPoint as="offset" />
          </mxGeometry>
        </mxCell>
        <mxCell id="WPxFGDH8g9c_htjjQB-0-9" value="Cliente Base" style="rhombus;whiteSpace=wrap;html=1;" parent="1" vertex="1">
          <mxGeometry x="168" y="183" width="80" height="80" as="geometry" />
        </mxCell>
        <mxCell id="WPxFGDH8g9c_htjjQB-0-13" value="Atualiza cadastro registro optin/optout" style="rounded=1;whiteSpace=wrap;html=1;fillColor=#fff2cc;strokeColor=#d6b656;" parent="1" vertex="1">
          <mxGeometry x="230" y="350" width="120" height="60" as="geometry" />
        </mxCell>
        <mxCell id="WPxFGDH8g9c_htjjQB-0-16" style="edgeStyle=orthogonalEdgeStyle;rounded=0;orthogonalLoop=1;jettySize=auto;html=1;entryX=0;entryY=0.5;entryDx=0;entryDy=0;" parent="1" source="WPxFGDH8g9c_htjjQB-0-13" target="WPxFGDH8g9c_htjjQB-0-6" edge="1">
          <mxGeometry relative="1" as="geometry" />
        </mxCell>
        <mxCell id="WPxFGDH8g9c_htjjQB-0-22" style="edgeStyle=orthogonalEdgeStyle;rounded=0;orthogonalLoop=1;jettySize=auto;html=1;entryX=1;entryY=0.25;entryDx=0;entryDy=0;" parent="1" source="WPxFGDH8g9c_htjjQB-0-21" target="WPxFGDH8g9c_htjjQB-0-4" edge="1">
          <mxGeometry relative="1" as="geometry" />
        </mxCell>
        <mxCell id="WPxFGDH8g9c_htjjQB-0-21" value="API PROPOSAL" style="rounded=1;whiteSpace=wrap;html=1;fillColor=#fff2cc;strokeColor=#d6b656;" parent="1" vertex="1">
          <mxGeometry x="430" y="20" width="120" height="60" as="geometry" />
        </mxCell>
        <mxCell id="WPxFGDH8g9c_htjjQB-0-24" style="edgeStyle=orthogonalEdgeStyle;rounded=0;orthogonalLoop=1;jettySize=auto;html=1;entryX=1;entryY=0.5;entryDx=0;entryDy=0;" parent="1" source="WPxFGDH8g9c_htjjQB-0-23" target="WPxFGDH8g9c_htjjQB-0-6" edge="1">
          <mxGeometry relative="1" as="geometry" />
        </mxCell>
        <mxCell id="WPxFGDH8g9c_htjjQB-0-23" value="API VENDA BASE" style="rounded=1;whiteSpace=wrap;html=1;fillColor=#fff2cc;strokeColor=#d6b656;" parent="1" vertex="1">
          <mxGeometry x="430" y="350" width="120" height="60" as="geometry" />
        </mxCell>
        <mxCell id="WPxFGDH8g9c_htjjQB-0-26" style="edgeStyle=orthogonalEdgeStyle;rounded=0;orthogonalLoop=1;jettySize=auto;html=1;entryX=1;entryY=0.5;entryDx=0;entryDy=0;" parent="1" source="WPxFGDH8g9c_htjjQB-0-25" target="WPxFGDH8g9c_htjjQB-0-21" edge="1">
          <mxGeometry relative="1" as="geometry" />
        </mxCell>
        <mxCell id="WPxFGDH8g9c_htjjQB-0-25" value="JORNADA VENDA PROSPECT SOLAR" style="rounded=1;whiteSpace=wrap;html=1;" parent="1" vertex="1">
          <mxGeometry x="640" y="20" width="120" height="60" as="geometry" />
        </mxCell>
        <mxCell id="WPxFGDH8g9c_htjjQB-0-28" style="edgeStyle=orthogonalEdgeStyle;rounded=0;orthogonalLoop=1;jettySize=auto;html=1;entryX=1;entryY=0.5;entryDx=0;entryDy=0;" parent="1" source="WPxFGDH8g9c_htjjQB-0-27" target="WPxFGDH8g9c_htjjQB-0-23" edge="1">
          <mxGeometry relative="1" as="geometry" />
        </mxCell>
        <mxCell id="WPxFGDH8g9c_htjjQB-0-27" value="JORNADA VENDA BASE ECOMMERCE" style="rounded=1;whiteSpace=wrap;html=1;" parent="1" vertex="1">
          <mxGeometry x="640" y="350" width="120" height="60" as="geometry" />
        </mxCell>
        <mxCell id="WPxFGDH8g9c_htjjQB-0-30" style="edgeStyle=orthogonalEdgeStyle;rounded=0;orthogonalLoop=1;jettySize=auto;html=1;entryX=0.5;entryY=1;entryDx=0;entryDy=0;" parent="1" source="WPxFGDH8g9c_htjjQB-0-29" target="WPxFGDH8g9c_htjjQB-0-25" edge="1">
          <mxGeometry relative="1" as="geometry" />
        </mxCell>
        <mxCell id="WPxFGDH8g9c_htjjQB-0-31" style="edgeStyle=orthogonalEdgeStyle;rounded=0;orthogonalLoop=1;jettySize=auto;html=1;" parent="1" source="WPxFGDH8g9c_htjjQB-0-29" target="WPxFGDH8g9c_htjjQB-0-27" edge="1">
          <mxGeometry relative="1" as="geometry" />
        </mxCell>
        <mxCell id="WPxFGDH8g9c_htjjQB-0-29" value="VENDEDOR" style="shape=umlActor;verticalLabelPosition=bottom;verticalAlign=top;html=1;outlineConnect=0;" parent="1" vertex="1">
          <mxGeometry x="685" y="185" width="30" height="60" as="geometry" />
        </mxCell>
        <mxCell id="WPxFGDH8g9c_htjjQB-0-32" value="VENDA PROSPECT/VENDA BASE" style="text;html=1;align=center;verticalAlign=middle;whiteSpace=wrap;rounded=0;fillColor=#f8cecc;strokeColor=#b85450;strokeWidth=3;" parent="1" vertex="1">
          <mxGeometry x="1" y="2" width="209" height="30" as="geometry" />
        </mxCell>
      </root>
    </mxGraphModel>
  </diagram>
  <diagram name="Venda Prospect/Base v2" id="zrkfpjsehAc1zw8EAttu">
    <mxGraphModel dx="1114" dy="566" grid="1" gridSize="10" guides="1" tooltips="1" connect="1" arrows="1" fold="1" page="1" pageScale="1" pageWidth="827" pageHeight="1169" math="0" shadow="0">
      <root>
        <mxCell id="IXZ_DEhPPVpkcfQMqWij-0" />
        <mxCell id="IXZ_DEhPPVpkcfQMqWij-1" parent="IXZ_DEhPPVpkcfQMqWij-0" />
        <mxCell id="IXZ_DEhPPVpkcfQMqWij-2" value="NETSMS" style="shape=cylinder3;whiteSpace=wrap;html=1;boundedLbl=1;backgroundOutline=1;size=15;verticalAlign=top;" vertex="1" parent="IXZ_DEhPPVpkcfQMqWij-1">
          <mxGeometry x="260" y="110" width="240" height="210" as="geometry" />
        </mxCell>
        <mxCell id="IXZ_DEhPPVpkcfQMqWij-3" style="edgeStyle=orthogonalEdgeStyle;rounded=0;orthogonalLoop=1;jettySize=auto;html=1;entryX=0.5;entryY=0;entryDx=0;entryDy=0;" edge="1" parent="IXZ_DEhPPVpkcfQMqWij-1" source="IXZ_DEhPPVpkcfQMqWij-4" target="IXZ_DEhPPVpkcfQMqWij-6">
          <mxGeometry relative="1" as="geometry">
            <mxPoint x="60" y="60" as="sourcePoint" />
            <Array as="points">
              <mxPoint x="80" y="60" />
            </Array>
          </mxGeometry>
        </mxCell>
        <mxCell id="IXZ_DEhPPVpkcfQMqWij-4" value="VENDEDOR" style="shape=umlActor;verticalLabelPosition=bottom;verticalAlign=top;html=1;outlineConnect=0;" vertex="1" parent="IXZ_DEhPPVpkcfQMqWij-1">
          <mxGeometry x="111" y="54" width="30" height="60" as="geometry" />
        </mxCell>
        <mxCell id="IXZ_DEhPPVpkcfQMqWij-5" style="edgeStyle=orthogonalEdgeStyle;rounded=0;orthogonalLoop=1;jettySize=auto;html=1;entryX=0;entryY=0.5;entryDx=0;entryDy=0;" edge="1" parent="IXZ_DEhPPVpkcfQMqWij-1" source="IXZ_DEhPPVpkcfQMqWij-6" target="IXZ_DEhPPVpkcfQMqWij-17">
          <mxGeometry relative="1" as="geometry" />
        </mxCell>
        <mxCell id="IXZ_DEhPPVpkcfQMqWij-6" value="NETSales&amp;nbsp;&lt;div&gt;Venda Prospect&lt;/div&gt;" style="rounded=1;whiteSpace=wrap;html=1;" vertex="1" parent="IXZ_DEhPPVpkcfQMqWij-1">
          <mxGeometry x="20" y="193" width="120" height="60" as="geometry" />
        </mxCell>
        <mxCell id="IXZ_DEhPPVpkcfQMqWij-7" style="edgeStyle=orthogonalEdgeStyle;rounded=0;orthogonalLoop=1;jettySize=auto;html=1;entryX=0;entryY=0.25;entryDx=0;entryDy=0;" edge="1" parent="IXZ_DEhPPVpkcfQMqWij-1" source="IXZ_DEhPPVpkcfQMqWij-8" target="IXZ_DEhPPVpkcfQMqWij-9">
          <mxGeometry relative="1" as="geometry" />
        </mxCell>
        <mxCell id="IXZ_DEhPPVpkcfQMqWij-8" value="Novo registro optin/out para email e telefone" style="rounded=1;whiteSpace=wrap;html=1;fillColor=#fff2cc;strokeColor=#d6b656;" vertex="1" parent="IXZ_DEhPPVpkcfQMqWij-1">
          <mxGeometry x="230" y="20" width="120" height="60" as="geometry" />
        </mxCell>
        <mxCell id="IXZ_DEhPPVpkcfQMqWij-9" value="Cadastro optin/out" style="swimlane;fontStyle=0;childLayout=stackLayout;horizontal=1;startSize=30;horizontalStack=0;resizeParent=1;resizeParentMax=0;resizeLast=0;collapsible=1;marginBottom=0;whiteSpace=wrap;html=1;fillColor=#fff2cc;strokeColor=#d6b656;" vertex="1" parent="IXZ_DEhPPVpkcfQMqWij-1">
          <mxGeometry x="310" y="183" width="140" height="120" as="geometry" />
        </mxCell>
        <mxCell id="IXZ_DEhPPVpkcfQMqWij-10" value="Email" style="text;strokeColor=none;fillColor=none;align=left;verticalAlign=middle;spacingLeft=4;spacingRight=4;overflow=hidden;points=[[0,0.5],[1,0.5]];portConstraint=eastwest;rotatable=0;whiteSpace=wrap;html=1;" vertex="1" parent="IXZ_DEhPPVpkcfQMqWij-9">
          <mxGeometry y="30" width="140" height="30" as="geometry" />
        </mxCell>
        <mxCell id="IXZ_DEhPPVpkcfQMqWij-11" value="Telefone" style="text;strokeColor=none;fillColor=none;align=left;verticalAlign=middle;spacingLeft=4;spacingRight=4;overflow=hidden;points=[[0,0.5],[1,0.5]];portConstraint=eastwest;rotatable=0;whiteSpace=wrap;html=1;" vertex="1" parent="IXZ_DEhPPVpkcfQMqWij-9">
          <mxGeometry y="60" width="140" height="30" as="geometry" />
        </mxCell>
        <mxCell id="IXZ_DEhPPVpkcfQMqWij-12" value="SMS" style="text;strokeColor=none;fillColor=none;align=left;verticalAlign=middle;spacingLeft=4;spacingRight=4;overflow=hidden;points=[[0,0.5],[1,0.5]];portConstraint=eastwest;rotatable=0;whiteSpace=wrap;html=1;" vertex="1" parent="IXZ_DEhPPVpkcfQMqWij-9">
          <mxGeometry y="90" width="140" height="30" as="geometry" />
        </mxCell>
        <mxCell id="IXZ_DEhPPVpkcfQMqWij-13" style="edgeStyle=orthogonalEdgeStyle;rounded=0;orthogonalLoop=1;jettySize=auto;html=1;entryX=0;entryY=0.5;entryDx=0;entryDy=0;exitX=0.5;exitY=0;exitDx=0;exitDy=0;" edge="1" parent="IXZ_DEhPPVpkcfQMqWij-1" source="IXZ_DEhPPVpkcfQMqWij-17" target="IXZ_DEhPPVpkcfQMqWij-8">
          <mxGeometry relative="1" as="geometry" />
        </mxCell>
        <mxCell id="IXZ_DEhPPVpkcfQMqWij-14" value="NÃ£o" style="edgeLabel;html=1;align=center;verticalAlign=middle;resizable=0;points=[];" vertex="1" connectable="0" parent="IXZ_DEhPPVpkcfQMqWij-13">
          <mxGeometry x="-0.639" relative="1" as="geometry">
            <mxPoint as="offset" />
          </mxGeometry>
        </mxCell>
        <mxCell id="IXZ_DEhPPVpkcfQMqWij-15" style="edgeStyle=orthogonalEdgeStyle;rounded=0;orthogonalLoop=1;jettySize=auto;html=1;entryX=0;entryY=0.5;entryDx=0;entryDy=0;exitX=0.5;exitY=1;exitDx=0;exitDy=0;" edge="1" parent="IXZ_DEhPPVpkcfQMqWij-1" source="IXZ_DEhPPVpkcfQMqWij-17" target="IXZ_DEhPPVpkcfQMqWij-18">
          <mxGeometry relative="1" as="geometry" />
        </mxCell>
        <mxCell id="IXZ_DEhPPVpkcfQMqWij-16" value="Sim" style="edgeLabel;html=1;align=center;verticalAlign=middle;resizable=0;points=[];" vertex="1" connectable="0" parent="IXZ_DEhPPVpkcfQMqWij-15">
          <mxGeometry x="-0.44" y="-2" relative="1" as="geometry">
            <mxPoint as="offset" />
          </mxGeometry>
        </mxCell>
        <mxCell id="IXZ_DEhPPVpkcfQMqWij-17" value="Cliente Base" style="rhombus;whiteSpace=wrap;html=1;" vertex="1" parent="IXZ_DEhPPVpkcfQMqWij-1">
          <mxGeometry x="168" y="183" width="80" height="80" as="geometry" />
        </mxCell>
        <mxCell id="IXZ_DEhPPVpkcfQMqWij-18" value="Atualiza cadastro registro optin/out" style="rounded=1;whiteSpace=wrap;html=1;fillColor=#fff2cc;strokeColor=#d6b656;" vertex="1" parent="IXZ_DEhPPVpkcfQMqWij-1">
          <mxGeometry x="230" y="350" width="120" height="60" as="geometry" />
        </mxCell>
        <mxCell id="IXZ_DEhPPVpkcfQMqWij-19" style="edgeStyle=orthogonalEdgeStyle;rounded=0;orthogonalLoop=1;jettySize=auto;html=1;entryX=0;entryY=0.5;entryDx=0;entryDy=0;" edge="1" parent="IXZ_DEhPPVpkcfQMqWij-1" source="IXZ_DEhPPVpkcfQMqWij-18" target="IXZ_DEhPPVpkcfQMqWij-11">
          <mxGeometry relative="1" as="geometry" />
        </mxCell>
        <mxCell id="IXZ_DEhPPVpkcfQMqWij-20" style="edgeStyle=orthogonalEdgeStyle;rounded=0;orthogonalLoop=1;jettySize=auto;html=1;entryX=1;entryY=0.25;entryDx=0;entryDy=0;" edge="1" parent="IXZ_DEhPPVpkcfQMqWij-1" source="IXZ_DEhPPVpkcfQMqWij-21" target="IXZ_DEhPPVpkcfQMqWij-9">
          <mxGeometry relative="1" as="geometry" />
        </mxCell>
        <mxCell id="IXZ_DEhPPVpkcfQMqWij-21" value="API PROPOSAL (novas opÃ§Ãµes optin/out)" style="rounded=1;whiteSpace=wrap;html=1;fillColor=#fff2cc;strokeColor=#d6b656;" vertex="1" parent="IXZ_DEhPPVpkcfQMqWij-1">
          <mxGeometry x="430" y="20" width="120" height="60" as="geometry" />
        </mxCell>
        <mxCell id="IXZ_DEhPPVpkcfQMqWij-22" style="edgeStyle=orthogonalEdgeStyle;rounded=0;orthogonalLoop=1;jettySize=auto;html=1;entryX=1;entryY=0.5;entryDx=0;entryDy=0;" edge="1" parent="IXZ_DEhPPVpkcfQMqWij-1" source="IXZ_DEhPPVpkcfQMqWij-23" target="IXZ_DEhPPVpkcfQMqWij-11">
          <mxGeometry relative="1" as="geometry" />
        </mxCell>
        <mxCell id="IXZ_DEhPPVpkcfQMqWij-23" value="API VENDA BASE (atualiza optin/out)" style="rounded=1;whiteSpace=wrap;html=1;fillColor=#fff2cc;strokeColor=#d6b656;" vertex="1" parent="IXZ_DEhPPVpkcfQMqWij-1">
          <mxGeometry x="430" y="350" width="120" height="60" as="geometry" />
        </mxCell>
        <mxCell id="IXZ_DEhPPVpkcfQMqWij-24" style="edgeStyle=orthogonalEdgeStyle;rounded=0;orthogonalLoop=1;jettySize=auto;html=1;entryX=1;entryY=0.5;entryDx=0;entryDy=0;" edge="1" parent="IXZ_DEhPPVpkcfQMqWij-1" source="IXZ_DEhPPVpkcfQMqWij-25" target="IXZ_DEhPPVpkcfQMqWij-21">
          <mxGeometry relative="1" as="geometry" />
        </mxCell>
        <mxCell id="IXZ_DEhPPVpkcfQMqWij-25" value="JORNADA VENDA PROSPECT SOLAR" style="rounded=1;whiteSpace=wrap;html=1;" vertex="1" parent="IXZ_DEhPPVpkcfQMqWij-1">
          <mxGeometry x="702" y="20" width="120" height="60" as="geometry" />
        </mxCell>
        <mxCell id="IXZ_DEhPPVpkcfQMqWij-26" style="edgeStyle=orthogonalEdgeStyle;rounded=0;orthogonalLoop=1;jettySize=auto;html=1;entryX=1;entryY=0.5;entryDx=0;entryDy=0;" edge="1" parent="IXZ_DEhPPVpkcfQMqWij-1" source="IXZ_DEhPPVpkcfQMqWij-27" target="IXZ_DEhPPVpkcfQMqWij-23">
          <mxGeometry relative="1" as="geometry" />
        </mxCell>
        <mxCell id="IXZ_DEhPPVpkcfQMqWij-27" value="JORNADA VENDA BASE ECOMMERCE" style="rounded=1;whiteSpace=wrap;html=1;" vertex="1" parent="IXZ_DEhPPVpkcfQMqWij-1">
          <mxGeometry x="702" y="350" width="120" height="60" as="geometry" />
        </mxCell>
        <mxCell id="IXZ_DEhPPVpkcfQMqWij-28" style="edgeStyle=orthogonalEdgeStyle;rounded=0;orthogonalLoop=1;jettySize=auto;html=1;entryX=0.5;entryY=1;entryDx=0;entryDy=0;" edge="1" parent="IXZ_DEhPPVpkcfQMqWij-1" source="IXZ_DEhPPVpkcfQMqWij-30" target="IXZ_DEhPPVpkcfQMqWij-25">
          <mxGeometry relative="1" as="geometry" />
        </mxCell>
        <mxCell id="IXZ_DEhPPVpkcfQMqWij-29" style="edgeStyle=orthogonalEdgeStyle;rounded=0;orthogonalLoop=1;jettySize=auto;html=1;" edge="1" parent="IXZ_DEhPPVpkcfQMqWij-1" source="IXZ_DEhPPVpkcfQMqWij-30" target="IXZ_DEhPPVpkcfQMqWij-27">
          <mxGeometry relative="1" as="geometry" />
        </mxCell>
        <mxCell id="IXZ_DEhPPVpkcfQMqWij-30" value="VENDEDOR" style="shape=umlActor;verticalLabelPosition=bottom;verticalAlign=top;html=1;outlineConnect=0;" vertex="1" parent="IXZ_DEhPPVpkcfQMqWij-1">
          <mxGeometry x="747" y="185" width="30" height="60" as="geometry" />
        </mxCell>
        <mxCell id="IXZ_DEhPPVpkcfQMqWij-31" value="VENDA PROSPECT/VENDA BASE" style="text;html=1;align=center;verticalAlign=middle;whiteSpace=wrap;rounded=0;fillColor=#f8cecc;strokeColor=#b85450;strokeWidth=3;" vertex="1" parent="IXZ_DEhPPVpkcfQMqWij-1">
          <mxGeometry x="1" y="2" width="209" height="30" as="geometry" />
        </mxCell>
        <mxCell id="6sESqE4DbHlM8E4fIhGb-0" value="ODS" style="shape=cylinder3;whiteSpace=wrap;html=1;boundedLbl=1;backgroundOutline=1;size=15;verticalAlign=top;" vertex="1" parent="IXZ_DEhPPVpkcfQMqWij-1">
          <mxGeometry x="572" y="263" width="130" height="84" as="geometry" />
        </mxCell>
        <mxCell id="6sESqE4DbHlM8E4fIhGb-1" value="Atualizar mapeamento de campos novos no GG" style="rounded=1;whiteSpace=wrap;html=1;fillColor=#fff2cc;strokeColor=#d6b656;" vertex="1" parent="IXZ_DEhPPVpkcfQMqWij-1">
          <mxGeometry x="577" y="171" width="120" height="60" as="geometry" />
        </mxCell>
        <mxCell id="6sESqE4DbHlM8E4fIhGb-4" style="edgeStyle=orthogonalEdgeStyle;rounded=0;orthogonalLoop=1;jettySize=auto;html=1;entryX=0.5;entryY=0;entryDx=0;entryDy=0;entryPerimeter=0;" edge="1" parent="IXZ_DEhPPVpkcfQMqWij-1" source="6sESqE4DbHlM8E4fIhGb-1" target="6sESqE4DbHlM8E4fIhGb-0">
          <mxGeometry relative="1" as="geometry" />
        </mxCell>
        <mxCell id="6sESqE4DbHlM8E4fIhGb-5" style="edgeStyle=orthogonalEdgeStyle;rounded=0;orthogonalLoop=1;jettySize=auto;html=1;" edge="1" parent="IXZ_DEhPPVpkcfQMqWij-1" source="IXZ_DEhPPVpkcfQMqWij-10" target="6sESqE4DbHlM8E4fIhGb-1">
          <mxGeometry relative="1" as="geometry" />
        </mxCell>
      </root>
    </mxGraphModel>
  </diagram>
  <diagram name="Atendimento" id="7ELKBeoCZUNTVQZFax3h">
    <mxGraphModel dx="1050" dy="530" grid="1" gridSize="10" guides="1" tooltips="1" connect="1" arrows="1" fold="1" page="1" pageScale="1" pageWidth="827" pageHeight="1169" math="0" shadow="0">
      <root>
        <mxCell id="lgTOI-XekvO7YTn3rAP--0" />
        <mxCell id="lgTOI-XekvO7YTn3rAP--1" parent="lgTOI-XekvO7YTn3rAP--0" />
        <mxCell id="lgTOI-XekvO7YTn3rAP--2" value="NETSMS" style="shape=cylinder3;whiteSpace=wrap;html=1;boundedLbl=1;backgroundOutline=1;size=15;verticalAlign=top;" vertex="1" parent="lgTOI-XekvO7YTn3rAP--1">
          <mxGeometry x="260" y="110" width="240" height="210" as="geometry" />
        </mxCell>
        <mxCell id="lgTOI-XekvO7YTn3rAP--3" style="edgeStyle=orthogonalEdgeStyle;rounded=0;orthogonalLoop=1;jettySize=auto;html=1;entryX=0.5;entryY=0;entryDx=0;entryDy=0;" edge="1" parent="lgTOI-XekvO7YTn3rAP--1" source="lgTOI-XekvO7YTn3rAP--4" target="lgTOI-XekvO7YTn3rAP--6">
          <mxGeometry relative="1" as="geometry">
            <mxPoint x="60" y="60" as="sourcePoint" />
            <Array as="points">
              <mxPoint x="80" y="60" />
            </Array>
          </mxGeometry>
        </mxCell>
        <mxCell id="lgTOI-XekvO7YTn3rAP--4" value="ATENDENTE" style="shape=umlActor;verticalLabelPosition=bottom;verticalAlign=top;html=1;outlineConnect=0;" vertex="1" parent="lgTOI-XekvO7YTn3rAP--1">
          <mxGeometry x="111" y="54" width="30" height="60" as="geometry" />
        </mxCell>
        <mxCell id="na580xvZ3ogEKiZ_eYki-1" style="edgeStyle=orthogonalEdgeStyle;rounded=0;orthogonalLoop=1;jettySize=auto;html=1;entryX=0;entryY=0.5;entryDx=0;entryDy=0;" edge="1" parent="lgTOI-XekvO7YTn3rAP--1" source="lgTOI-XekvO7YTn3rAP--6" target="lgTOI-XekvO7YTn3rAP--8">
          <mxGeometry relative="1" as="geometry" />
        </mxCell>
        <mxCell id="lgTOI-XekvO7YTn3rAP--6" value="NETSMS" style="rounded=1;whiteSpace=wrap;html=1;" vertex="1" parent="lgTOI-XekvO7YTn3rAP--1">
          <mxGeometry x="20" y="193" width="120" height="60" as="geometry" />
        </mxCell>
        <mxCell id="lgTOI-XekvO7YTn3rAP--7" style="edgeStyle=orthogonalEdgeStyle;rounded=0;orthogonalLoop=1;jettySize=auto;html=1;entryX=0;entryY=0.25;entryDx=0;entryDy=0;" edge="1" parent="lgTOI-XekvO7YTn3rAP--1" source="lgTOI-XekvO7YTn3rAP--8" target="lgTOI-XekvO7YTn3rAP--9">
          <mxGeometry relative="1" as="geometry" />
        </mxCell>
        <mxCell id="lgTOI-XekvO7YTn3rAP--8" value="&lt;b&gt;Tela&amp;nbsp;&lt;/b&gt;&lt;div&gt;Atualizar cadastro optin/optout&lt;/div&gt;" style="rounded=1;whiteSpace=wrap;html=1;fillColor=#fff2cc;strokeColor=#d6b656;" vertex="1" parent="lgTOI-XekvO7YTn3rAP--1">
          <mxGeometry x="230" y="20" width="120" height="60" as="geometry" />
        </mxCell>
        <mxCell id="lgTOI-XekvO7YTn3rAP--9" value="Cadastro optin/optout" style="swimlane;fontStyle=0;childLayout=stackLayout;horizontal=1;startSize=30;horizontalStack=0;resizeParent=1;resizeParentMax=0;resizeLast=0;collapsible=1;marginBottom=0;whiteSpace=wrap;html=1;fillColor=#fff2cc;strokeColor=#d6b656;" vertex="1" parent="lgTOI-XekvO7YTn3rAP--1">
          <mxGeometry x="310" y="183" width="140" height="120" as="geometry" />
        </mxCell>
        <mxCell id="lgTOI-XekvO7YTn3rAP--10" value="Email" style="text;strokeColor=none;fillColor=none;align=left;verticalAlign=middle;spacingLeft=4;spacingRight=4;overflow=hidden;points=[[0,0.5],[1,0.5]];portConstraint=eastwest;rotatable=0;whiteSpace=wrap;html=1;" vertex="1" parent="lgTOI-XekvO7YTn3rAP--9">
          <mxGeometry y="30" width="140" height="30" as="geometry" />
        </mxCell>
        <mxCell id="lgTOI-XekvO7YTn3rAP--11" value="Telefone" style="text;strokeColor=none;fillColor=none;align=left;verticalAlign=middle;spacingLeft=4;spacingRight=4;overflow=hidden;points=[[0,0.5],[1,0.5]];portConstraint=eastwest;rotatable=0;whiteSpace=wrap;html=1;" vertex="1" parent="lgTOI-XekvO7YTn3rAP--9">
          <mxGeometry y="60" width="140" height="30" as="geometry" />
        </mxCell>
        <mxCell id="lgTOI-XekvO7YTn3rAP--12" value="SMS" style="text;strokeColor=none;fillColor=none;align=left;verticalAlign=middle;spacingLeft=4;spacingRight=4;overflow=hidden;points=[[0,0.5],[1,0.5]];portConstraint=eastwest;rotatable=0;whiteSpace=wrap;html=1;" vertex="1" parent="lgTOI-XekvO7YTn3rAP--9">
          <mxGeometry y="90" width="140" height="30" as="geometry" />
        </mxCell>
        <mxCell id="lgTOI-XekvO7YTn3rAP--20" style="edgeStyle=orthogonalEdgeStyle;rounded=0;orthogonalLoop=1;jettySize=auto;html=1;entryX=1;entryY=0.25;entryDx=0;entryDy=0;" edge="1" parent="lgTOI-XekvO7YTn3rAP--1" source="lgTOI-XekvO7YTn3rAP--21" target="lgTOI-XekvO7YTn3rAP--9">
          <mxGeometry relative="1" as="geometry" />
        </mxCell>
        <mxCell id="na580xvZ3ogEKiZ_eYki-4" value="GET / POST" style="edgeLabel;html=1;align=center;verticalAlign=middle;resizable=0;points=[];" vertex="1" connectable="0" parent="lgTOI-XekvO7YTn3rAP--20">
          <mxGeometry x="-0.748" y="2" relative="1" as="geometry">
            <mxPoint as="offset" />
          </mxGeometry>
        </mxCell>
        <mxCell id="lgTOI-XekvO7YTn3rAP--21" value="&lt;b&gt;API &lt;/b&gt;OPTIN/OPTOUT (Consulta e AlteraÃ§Ã£o)" style="rounded=1;whiteSpace=wrap;html=1;fillColor=#fff2cc;strokeColor=#d6b656;" vertex="1" parent="lgTOI-XekvO7YTn3rAP--1">
          <mxGeometry x="430" y="20" width="120" height="60" as="geometry" />
        </mxCell>
        <mxCell id="lgTOI-XekvO7YTn3rAP--31" value="ATENDIMENTO" style="text;html=1;align=center;verticalAlign=middle;whiteSpace=wrap;rounded=0;fillColor=#f8cecc;strokeColor=#b85450;strokeWidth=3;" vertex="1" parent="lgTOI-XekvO7YTn3rAP--1">
          <mxGeometry x="1" y="2" width="209" height="30" as="geometry" />
        </mxCell>
        <mxCell id="na580xvZ3ogEKiZ_eYki-3" style="edgeStyle=orthogonalEdgeStyle;rounded=0;orthogonalLoop=1;jettySize=auto;html=1;entryX=1;entryY=0.5;entryDx=0;entryDy=0;exitX=0.5;exitY=0;exitDx=0;exitDy=0;exitPerimeter=0;" edge="1" parent="lgTOI-XekvO7YTn3rAP--1" source="na580xvZ3ogEKiZ_eYki-2" target="lgTOI-XekvO7YTn3rAP--21">
          <mxGeometry relative="1" as="geometry" />
        </mxCell>
        <mxCell id="na580xvZ3ogEKiZ_eYki-2" value="" style="verticalLabelPosition=bottom;sketch=0;html=1;fillColor=#A153A0;strokeColor=#ffffff;verticalAlign=top;align=center;points=[[0,0.5,0],[0.125,0.25,0],[0.25,0,0],[0.5,0,0],[0.75,0,0],[0.875,0.25,0],[1,0.5,0],[0.875,0.75,0],[0.75,1,0],[0.5,1,0],[0.125,0.75,0]];pointerEvents=1;shape=mxgraph.cisco_safe.compositeIcon;bgIcon=mxgraph.cisco_safe.design.blank_device;resIcon=mxgraph.cisco_safe.design.automated_system;" vertex="1" parent="lgTOI-XekvO7YTn3rAP--1">
          <mxGeometry x="580" y="100" width="100" height="88" as="geometry" />
        </mxCell>
      </root>
    </mxGraphModel>
  </diagram>
</mxfile>
